<svg width="20" height="20" viewBox="0 0 20 20" fill="none" xmlns="http://www.w3.org/2000/svg">
<path d="M7.63216 9.68333C7.60716 9.68333 7.5905 9.68333 7.5655 9.68333C7.52383 9.675 7.46549 9.675 7.41549 9.68333C4.99883 9.60833 3.17383 7.70833 3.17383 5.36666C3.17383 2.98333 5.11549 1.04166 7.49883 1.04166C9.88216 1.04166 11.8238 2.98333 11.8238 5.36666C11.8155 7.70833 9.98216 9.60833 7.65716 9.68333C7.64883 9.68333 7.64049 9.68333 7.63216 9.68333ZM7.49883 2.29166C5.80716 2.29166 4.42383 3.675 4.42383 5.36666C4.42383 7.03333 5.72383 8.375 7.38216 8.43333C7.43216 8.425 7.5405 8.425 7.64883 8.43333C9.28216 8.35833 10.5655 7.01666 10.5738 5.36666C10.5738 3.675 9.1905 2.29166 7.49883 2.29166Z" fill="white"/>
<path d="M13.784 9.79167C13.759 9.79167 13.734 9.79167 13.709 9.78334C13.3673 9.81667 13.0173 9.575 12.984 9.23334C12.9506 8.89167 13.159 8.58334 13.5006 8.54167C13.6006 8.53334 13.709 8.53334 13.8006 8.53334C15.0173 8.46667 15.9673 7.46667 15.9673 6.24167C15.9673 4.975 14.9423 3.95 13.6756 3.95C13.334 3.95834 13.0506 3.675 13.0506 3.33334C13.0506 2.99167 13.334 2.70834 13.6756 2.70834C15.6256 2.70834 17.2173 4.3 17.2173 6.25C17.2173 8.16667 15.7173 9.71667 13.809 9.79167C13.8006 9.79167 13.7923 9.79167 13.784 9.79167Z" fill="white"/>
<path d="M7.64036 18.7917C6.00703 18.7917 4.36536 18.375 3.1237 17.5417C1.96536 16.775 1.33203 15.725 1.33203 14.5833C1.33203 13.4417 1.96536 12.3833 3.1237 11.6083C5.6237 9.95 9.6737 9.95 12.157 11.6083C13.307 12.375 13.9487 13.425 13.9487 14.5667C13.9487 15.7083 13.3154 16.7667 12.157 17.5417C10.907 18.375 9.2737 18.7917 7.64036 18.7917ZM3.81536 12.6583C3.01536 13.1917 2.58203 13.875 2.58203 14.5917C2.58203 15.3 3.0237 15.9833 3.81536 16.5083C5.89036 17.9 9.39036 17.9 11.4654 16.5083C12.2654 15.975 12.6987 15.2917 12.6987 14.575C12.6987 13.8667 12.257 13.1833 11.4654 12.6583C9.39036 11.275 5.89036 11.275 3.81536 12.6583Z" fill="white"/>
<path d="M15.2825 17.2917C14.9908 17.2917 14.7325 17.0917 14.6742 16.7917C14.6075 16.45 14.8242 16.125 15.1575 16.05C15.6825 15.9417 16.1658 15.7333 16.5408 15.4417C17.0158 15.0833 17.2742 14.6333 17.2742 14.1583C17.2742 13.6833 17.0158 13.2333 16.5492 12.8833C16.1825 12.6 15.7242 12.4 15.1825 12.275C14.8492 12.2 14.6325 11.8667 14.7075 11.525C14.7825 11.1917 15.1158 10.975 15.4575 11.05C16.1742 11.2083 16.7992 11.4917 17.3075 11.8833C18.0825 12.4667 18.5242 13.2917 18.5242 14.1583C18.5242 15.025 18.0742 15.85 17.2992 16.4417C16.7825 16.8417 16.1325 17.1333 15.4158 17.275C15.3658 17.2917 15.3242 17.2917 15.2825 17.2917Z" fill="white"/>
</svg>
