<svg width="204" height="40" viewBox="0 0 204 40" fill="none" xmlns="http://www.w3.org/2000/svg">
<path d="M173.93 39.6023V28.0683H175.123V39.6023H173.93Z" fill="#4ECD9D"/>
<path d="M178.473 39.6023V31.8915H179.667V39.6023H178.473ZM179.134 30.3106C178.683 30.3106 178.263 29.9073 178.263 29.4556C178.263 29.0201 178.683 28.6168 179.134 28.6168C179.57 28.6168 180.005 29.0201 180.005 29.4556C180.005 29.9073 179.57 30.3106 179.134 30.3106Z" fill="#4ECD9D"/>
<path d="M182.953 39.6023V31.9238H184.115V33.5369C184.776 32.3916 185.631 31.6979 186.76 31.6979C187.825 31.6979 188.728 32.3109 188.857 33.5046C189.503 32.3754 190.341 31.6979 191.471 31.6979C192.616 31.6979 193.584 32.4077 193.584 33.8111V39.6023H192.39V34.3596C192.39 33.053 191.697 32.4722 190.89 32.4722C190.245 32.4722 189.535 32.8594 188.874 33.9725V39.6023H187.68V34.3596C187.68 33.0368 186.986 32.4722 186.18 32.4722C185.534 32.4722 184.808 32.8594 184.147 33.9725V39.6023H182.953Z" fill="#4ECD9D"/>
<path d="M200.161 39.7637C197.789 39.7637 196.531 37.8279 196.531 35.8114C196.531 33.795 197.789 31.6979 200.161 31.6979C202.548 31.6979 203.806 33.6821 203.806 35.6824C203.806 37.6988 202.548 39.7637 200.161 39.7637ZM200.386 39.441C201.532 39.441 202.548 38.4247 202.548 36.247C202.548 34.2144 201.693 32.0205 199.951 32.0205C198.838 32.0205 197.789 33.053 197.789 35.2307C197.789 37.2633 198.644 39.441 200.386 39.441Z" fill="#4ECD9D"/>
<path d="M0 22.0728V0.286316H13.9555V1.35279H5.18V9.97597H13.0719V11.012H5.18V21.0063H14.1384V22.0728H0Z" fill="url(#paint0_linear_372_659)"/>
<path d="M16.8917 22.0728V0.286316H21.5537V22.0728H16.8917Z" fill="url(#paint1_linear_372_659)"/>
<path d="M30.8289 22.3775C26.563 22.3775 23.4855 19.239 23.4855 14.638C23.4855 10.0978 26.4716 6.95938 31.0422 6.95938C34.7291 6.95938 37.1972 9.03138 37.4715 12.6878V13.0535H27.7513C27.7209 13.2059 27.7209 13.3887 27.7209 13.5106C27.7209 17.0756 29.8233 19.2086 32.9009 19.2086C34.9424 19.2086 36.4964 18.2944 37.3191 16.71L37.5324 16.8014C36.7402 20.3055 34.3025 22.3775 30.8289 22.3775ZM27.7818 12.2917L33.2056 12.2003C32.9618 9.39703 31.8953 7.81255 30.4328 7.81255C28.9702 7.81255 27.9951 9.36656 27.7818 12.2917Z" fill="url(#paint2_linear_372_659)"/>
<path d="M44.6287 22.1033L37.8642 7.3555H42.9833L47.3406 17.4413C48.529 15.1255 49.1688 13.6324 49.5345 12.566C49.6564 12.1699 49.7173 11.8347 49.7173 11.469C49.7173 10.3416 49.1993 9.06185 47.9805 7.3555H51.5455C51.576 7.6602 51.6065 7.96491 51.6065 8.23914C51.6065 9.76267 51.2104 11.3471 50.3572 13.2059L46.0608 22.1033H44.6287Z" fill="url(#paint3_linear_372_659)"/>
<path d="M56.3197 22.3166C53.943 22.3166 52.328 20.8844 52.328 18.8124C52.328 16.0396 55.2532 13.9981 61.7739 12.2917L61.8044 9.91503C61.8348 8.60479 61.2254 7.69067 60.0371 7.69067C58.3307 7.69067 57.1119 9.64079 57.0814 12.6878L56.9291 12.7183L53.364 10.7377C54.2477 8.51338 57.2643 6.95938 60.5551 6.95938C64.242 6.95938 66.2531 8.84855 66.2531 12.3831V22.0728H61.7739V19.1476H61.713C60.7074 21.0673 58.5745 22.3166 56.3197 22.3166ZM58.9706 19.7266C59.8847 19.7266 60.9207 19.1476 61.6825 18.2335L61.7739 12.9316C58.6659 13.8762 57.1424 15.3997 57.1424 17.4717C57.1424 18.8429 57.8737 19.7266 58.9706 19.7266Z" fill="url(#paint4_linear_372_659)"/>
<path d="M73.5758 22.3775C71.4124 22.3775 69.5232 21.0673 69.5232 18.1421V8.30008H68.0911V7.81255C69.8888 6.80702 72.6617 4.94832 73.7891 3.15055H74.1547V7.3555H77.8721L77.7198 8.30008H74.1852L74.1243 17.4108C74.0938 19.6351 75.2517 20.2141 76.2877 20.2141C76.8666 20.2141 77.5065 19.9703 78.2378 19.2086L78.3901 19.3609C77.5065 20.8844 75.983 22.3775 73.5758 22.3775Z" fill="url(#paint5_linear_372_659)"/>
<path d="M86.1758 22.3775C81.91 22.3775 78.8324 19.239 78.8324 14.638C78.8324 10.0978 81.8186 6.95938 86.3891 6.95938C90.0761 6.95938 92.5442 9.03138 92.8184 12.6878V13.0535H83.0983C83.0679 13.2059 83.0678 13.3887 83.0678 13.5106C83.0678 17.0756 84.2422 19.2086 88.2479 19.2086C99.4775 18.2102 105.824 10.8327 106.647 9.24826L106.86 9.33967C106.068 12.8438 94.1004 22.2431 86.1758 22.3775ZM83.1288 12.2917L88.5526 12.2003C88.3088 9.39703 87.2423 7.81255 85.7797 7.81255C84.3171 7.81255 83.3421 9.36656 83.1288 12.2917Z" fill="url(#paint6_linear_372_659)"/>
<path d="M101.668 28.045V7.35548H106.208V9.57983L106.269 9.6103C107.305 8.17819 108.767 6.95936 110.87 6.95936C113.887 6.95936 116.812 9.33607 116.812 14.3637C116.812 19.7875 113.521 22.3775 110.474 22.3775C109.042 22.3775 107.518 21.7985 106.36 20.854H106.33V28.045H101.668ZM109.59 21.3415C111.236 21.3415 111.967 19.3914 111.967 15.4607C111.967 11.8651 111.114 8.75713 108.92 8.75713C107.945 8.75713 107.122 9.45795 106.33 10.5244V16.8623C106.939 19.3914 108.067 21.3415 109.59 21.3415Z" fill="url(#paint7_linear_372_659)"/>
<path d="M118.718 22.0728V7.35548H123.289V9.94548H123.319C123.929 8.2696 125.3 6.95936 127.585 6.95936C128.042 6.95936 128.469 7.0203 128.865 7.11172L128.286 11.987H128.073C126.915 10.6158 125.818 9.70172 124.965 9.70172C124.203 9.70172 123.685 10.2807 123.38 10.9205V22.0728H118.718Z" fill="url(#paint8_linear_372_659)"/>
<path d="M137 22.3775C132.734 22.3775 129.656 19.239 129.656 14.638C129.656 10.0978 132.643 6.95936 137.213 6.95936C140.9 6.95936 143.368 9.03136 143.643 12.6878V13.0535H133.922C133.892 13.2058 133.892 13.3887 133.892 13.5105C133.892 17.0756 135.994 19.2085 139.072 19.2085C141.113 19.2085 142.667 18.2944 143.49 16.71L143.703 16.8014C142.911 20.3055 140.474 22.3775 137 22.3775ZM133.953 12.2917L139.377 12.2003C139.133 9.39701 138.066 7.81254 136.604 7.81254C135.141 7.81254 134.166 9.36654 133.953 12.2917Z" fill="url(#paint9_linear_372_659)"/>
<path d="M145.618 22.0728V7.38595H150.189V10.2197C151.468 8.14772 153.175 6.95936 155.216 6.95936C157.349 6.95936 159.117 8.17819 159.513 10.2502C160.792 8.14772 162.529 6.95936 164.632 6.95936C167.13 6.95936 169.05 8.69619 169.05 11.469V22.0728H164.388V12.2003C164.388 10.2502 163.443 9.36654 162.225 9.36654C161.371 9.36654 160.457 9.85407 159.665 11.1948V22.0728H155.003V12.2003C155.003 10.2807 154.058 9.36654 152.87 9.36654C151.986 9.36654 151.072 9.88454 150.28 11.1948V22.0728H145.618Z" fill="url(#paint10_linear_372_659)"/>
<path d="M171.387 22.0728V7.35548H176.049V22.0728H171.387Z" fill="url(#paint11_linear_372_659)"/>
<path d="M185.235 22.3775C180.969 22.3775 177.892 19.239 177.892 14.638C177.892 10.0978 180.878 6.95936 185.448 6.95936C189.135 6.95936 191.603 9.03136 191.878 12.6878V13.0535H182.158C182.127 13.2058 182.127 13.3887 182.127 13.5105C182.127 17.0756 184.23 19.2085 187.307 19.2085C189.349 19.2085 190.903 18.2944 191.725 16.71L191.939 16.8014C191.146 20.3055 188.709 22.3775 185.235 22.3775ZM182.188 12.2917L187.612 12.2003C187.368 9.39701 186.302 7.81254 184.839 7.81254C183.376 7.81254 182.401 9.36654 182.188 12.2917Z" fill="url(#paint12_linear_372_659)"/>
<path d="M193.853 22.0728V7.35548H198.424V9.94548H198.454C199.064 8.2696 200.435 6.95936 202.72 6.95936C203.177 6.95936 203.604 7.0203 204 7.11172L203.421 11.987H203.208C202.05 10.6158 200.953 9.70172 200.1 9.70172C199.338 9.70172 198.82 10.2807 198.515 10.9205V22.0728H193.853Z" fill="url(#paint13_linear_372_659)"/>
<path d="M171.326 3.02869C171.326 4.27798 172.454 5.34445 173.794 5.34445C175.135 5.34445 176.232 4.27798 176.232 3.02869C176.232 1.77939 175.135 0.712921 173.794 0.712921C172.454 0.712921 171.326 1.77939 171.326 3.02869Z" fill="#4ECD9D"/>
<defs>
<linearGradient id="paint0_linear_372_659" x1="-4.03287" y1="-15.3971" x2="213.742" y2="37.0303" gradientUnits="userSpaceOnUse">
<stop stop-color="#E7F8FF"/>
<stop offset="0.25" stop-color="#708289"/>
<stop offset="0.5" stop-color="#AECAD5"/>
<stop offset="0.75" stop-color="#708289"/>
<stop offset="1" stop-color="#BDCCD1"/>
</linearGradient>
<linearGradient id="paint1_linear_372_659" x1="-4.03287" y1="-15.3971" x2="213.742" y2="37.0303" gradientUnits="userSpaceOnUse">
<stop stop-color="#E7F8FF"/>
<stop offset="0.25" stop-color="#708289"/>
<stop offset="0.5" stop-color="#AECAD5"/>
<stop offset="0.75" stop-color="#708289"/>
<stop offset="1" stop-color="#BDCCD1"/>
</linearGradient>
<linearGradient id="paint2_linear_372_659" x1="-4.03287" y1="-15.3971" x2="213.742" y2="37.0303" gradientUnits="userSpaceOnUse">
<stop stop-color="#E7F8FF"/>
<stop offset="0.25" stop-color="#708289"/>
<stop offset="0.5" stop-color="#AECAD5"/>
<stop offset="0.75" stop-color="#708289"/>
<stop offset="1" stop-color="#BDCCD1"/>
</linearGradient>
<linearGradient id="paint3_linear_372_659" x1="-4.03287" y1="-15.3971" x2="213.742" y2="37.0303" gradientUnits="userSpaceOnUse">
<stop stop-color="#E7F8FF"/>
<stop offset="0.25" stop-color="#708289"/>
<stop offset="0.5" stop-color="#AECAD5"/>
<stop offset="0.75" stop-color="#708289"/>
<stop offset="1" stop-color="#BDCCD1"/>
</linearGradient>
<linearGradient id="paint4_linear_372_659" x1="-4.03287" y1="-15.3971" x2="213.742" y2="37.0303" gradientUnits="userSpaceOnUse">
<stop stop-color="#E7F8FF"/>
<stop offset="0.25" stop-color="#708289"/>
<stop offset="0.5" stop-color="#AECAD5"/>
<stop offset="0.75" stop-color="#708289"/>
<stop offset="1" stop-color="#BDCCD1"/>
</linearGradient>
<linearGradient id="paint5_linear_372_659" x1="-4.03287" y1="-15.3971" x2="213.742" y2="37.0303" gradientUnits="userSpaceOnUse">
<stop stop-color="#E7F8FF"/>
<stop offset="0.25" stop-color="#708289"/>
<stop offset="0.5" stop-color="#AECAD5"/>
<stop offset="0.75" stop-color="#708289"/>
<stop offset="1" stop-color="#BDCCD1"/>
</linearGradient>
<linearGradient id="paint6_linear_372_659" x1="-4.03287" y1="-15.3971" x2="213.742" y2="37.0303" gradientUnits="userSpaceOnUse">
<stop stop-color="#E7F8FF"/>
<stop offset="0.25" stop-color="#708289"/>
<stop offset="0.5" stop-color="#AECAD5"/>
<stop offset="0.75" stop-color="#708289"/>
<stop offset="1" stop-color="#BDCCD1"/>
</linearGradient>
<linearGradient id="paint7_linear_372_659" x1="-4.03287" y1="-15.3971" x2="213.742" y2="37.0303" gradientUnits="userSpaceOnUse">
<stop stop-color="#E7F8FF"/>
<stop offset="0.25" stop-color="#708289"/>
<stop offset="0.5" stop-color="#AECAD5"/>
<stop offset="0.75" stop-color="#708289"/>
<stop offset="1" stop-color="#BDCCD1"/>
</linearGradient>
<linearGradient id="paint8_linear_372_659" x1="-4.03287" y1="-15.3971" x2="213.742" y2="37.0303" gradientUnits="userSpaceOnUse">
<stop stop-color="#E7F8FF"/>
<stop offset="0.25" stop-color="#708289"/>
<stop offset="0.5" stop-color="#AECAD5"/>
<stop offset="0.75" stop-color="#708289"/>
<stop offset="1" stop-color="#BDCCD1"/>
</linearGradient>
<linearGradient id="paint9_linear_372_659" x1="-4.03287" y1="-15.3971" x2="213.742" y2="37.0303" gradientUnits="userSpaceOnUse">
<stop stop-color="#E7F8FF"/>
<stop offset="0.25" stop-color="#708289"/>
<stop offset="0.5" stop-color="#AECAD5"/>
<stop offset="0.75" stop-color="#708289"/>
<stop offset="1" stop-color="#BDCCD1"/>
</linearGradient>
<linearGradient id="paint10_linear_372_659" x1="-4.03287" y1="-15.3971" x2="213.742" y2="37.0303" gradientUnits="userSpaceOnUse">
<stop stop-color="#E7F8FF"/>
<stop offset="0.25" stop-color="#708289"/>
<stop offset="0.5" stop-color="#AECAD5"/>
<stop offset="0.75" stop-color="#708289"/>
<stop offset="1" stop-color="#BDCCD1"/>
</linearGradient>
<linearGradient id="paint11_linear_372_659" x1="-4.03287" y1="-15.3971" x2="213.742" y2="37.0303" gradientUnits="userSpaceOnUse">
<stop stop-color="#E7F8FF"/>
<stop offset="0.25" stop-color="#708289"/>
<stop offset="0.5" stop-color="#AECAD5"/>
<stop offset="0.75" stop-color="#708289"/>
<stop offset="1" stop-color="#BDCCD1"/>
</linearGradient>
<linearGradient id="paint12_linear_372_659" x1="-4.03287" y1="-15.3971" x2="213.742" y2="37.0303" gradientUnits="userSpaceOnUse">
<stop stop-color="#E7F8FF"/>
<stop offset="0.25" stop-color="#708289"/>
<stop offset="0.5" stop-color="#AECAD5"/>
<stop offset="0.75" stop-color="#708289"/>
<stop offset="1" stop-color="#BDCCD1"/>
</linearGradient>
<linearGradient id="paint13_linear_372_659" x1="-4.03287" y1="-15.3971" x2="213.742" y2="37.0303" gradientUnits="userSpaceOnUse">
<stop stop-color="#E7F8FF"/>
<stop offset="0.25" stop-color="#708289"/>
<stop offset="0.5" stop-color="#AECAD5"/>
<stop offset="0.75" stop-color="#708289"/>
<stop offset="1" stop-color="#BDCCD1"/>
</linearGradient>
</defs>
</svg>
